<svg id="blp_main_k" xmlns="http://www.w3.org/2000/svg" viewBox="0 0 141.9 39.5"><title>Blp_1_K_black</title><path d="M4.4,42,2.7,38.4v2.9c0,.3,0,.4.1.5s.2.1.4.1h.2V42H1.9v-.1H2a.52.52,0,0,0,.4-.2,2,2,0,0,0,.1-.5V38.4c0-.2,0-.3-.1-.4s-.1-.1-.2-.2-.2-.1-.4-.1v-.1H3L4.7,41l1.5-3.3H7.4v.1H7.2a.52.52,0,0,0-.4.2,2,2,0,0,0-.1.5v2.8c0,.3,0,.4.1.5s.2.1.4.1h.1V42H5.6v-.1h.2a.52.52,0,0,0,.4-.2,2,2,0,0,0,.1-.5V38.3L4.5,42Z" transform="translate(-1.8 -2.7)"/><path d="M10.9,40.5H9.3l-.3.7a.76.76,0,0,0-.1.4c0,.1,0,.1.1.2s.2.1.4.1V42H8v-.1a.44.44,0,0,0,.3-.1,5.92,5.92,0,0,0,.4-.6l1.5-3.5h.1l1.5,3.6a1.63,1.63,0,0,0,.3.6c.1.1.2.1.4.1H10.8v-.1c.2,0,.3,0,.3-.1s.1-.1.1-.2a.76.76,0,0,0-.1-.4Zm0-.2-.7-1.7-.7,1.7Z" transform="translate(-1.8 -2.7)"/><path d="M13,37.7h1.2l2.6,3.2V38.4c0-.3,0-.4-.1-.5s-.2-.1-.4-.1h-.1v-.1h1.5v.1h-.2a.52.52,0,0,0-.4.2,2,2,0,0,0-.1.5V42h0l-2.8-3.4v2.6c0,.3,0,.4.1.5s.2.1.4.1h.2V42H13.4v-.1h.1a.52.52,0,0,0,.4-.2,2,2,0,0,0,.1-.5v-3l-.3-.3c-.1,0-.2-.1-.3-.1h-.3v-.1Z" transform="translate(-1.8 -2.7)"/><path d="M21.6,37.8v-.1h1.5v.1H23a.52.52,0,0,0-.4.2,2,2,0,0,0-.1.5v1.7a2.79,2.79,0,0,1-.1,1,2.65,2.65,0,0,1-.5.6,1.49,1.49,0,0,1-1,.3,3.09,3.09,0,0,1-1.1-.2,1.79,1.79,0,0,1-.5-.7,2.81,2.81,0,0,1-.1-1.1V38.4c0-.3,0-.4-.1-.5s-.2-.1-.4-.1h-.2v-.1h1.8v.1h-.2a.52.52,0,0,0-.4.2c-.1.1-.1.2-.1.5V41a.76.76,0,0,0,.2.5l.3.3c.1.1.3.1.6.1a2.35,2.35,0,0,0,.8-.2,1.21,1.21,0,0,0,.5-.5,2.51,2.51,0,0,0,.1-1V38.5c0-.3,0-.4-.1-.5s-.2-.1-.4-.1h0Z" transform="translate(-1.8 -2.7)"/><path d="M25.3,37.9v1.7H26c.2,0,.3,0,.4-.1s.1-.2.2-.5h.1v1.4h-.1c0-.2,0-.3-.1-.4s-.1-.1-.2-.2-.2-.1-.3-.1h-.8v1.7a.1.1,0,0,0,.1.1c.1,0,.2.1.3.1h.2V42H24v-.1h.2a.52.52,0,0,0,.4-.2c.1-.1.1-.2.1-.5V38a.1.1,0,0,0-.1-.1.37.37,0,0,0-.3-.1H24v-.1h3.2v.9h-.1c-.1-.2-.1-.3-.2-.4s-.2-.2-.3-.2a4.33,4.33,0,0,0-.5-.1Z" transform="translate(-1.8 -2.7)"/><path d="M30.4,40.5H28.7l-.3.7a.76.76,0,0,0-.1.4c0,.1,0,.1.1.2s.2.1.4.1V42H27.5v-.1a.44.44,0,0,0,.3-.1,5.92,5.92,0,0,0,.4-.6l1.5-3.5h.1l1.5,3.6a1.63,1.63,0,0,0,.3.6c.1.1.2.1.4.1H30.3v-.1c.2,0,.3,0,.3-.1s.1-.1.1-.2a.76.76,0,0,0-.1-.4Zm-.1-.2-.7-1.7-.7,1.7Z" transform="translate(-1.8 -2.7)"/><path d="M36.2,37.6l.1,1.5h-.1a1.46,1.46,0,0,0-.6-.9,1.22,1.22,0,0,0-.9-.3,2.35,2.35,0,0,0-.8.2,1.28,1.28,0,0,0-.5.7,3.73,3.73,0,0,0-.2,1.2,3,3,0,0,0,.2,1,1.34,1.34,0,0,0,.6.7c.2.2.5.2.9.2a1.45,1.45,0,0,0,.7-.2,4.51,4.51,0,0,0,.7-.7l.1.1a1.9,1.9,0,0,1-.7.8,1.69,1.69,0,0,1-1,.3,1.82,1.82,0,0,1-1.6-.8,2.3,2.3,0,0,1-.4-1.4,2.66,2.66,0,0,1,.3-1.2,2,2,0,0,1,.8-.8,2,2,0,0,1,1.1-.3,2.92,2.92,0,0,1,.9.2.35.35,0,0,1,.2.1c.1,0,.1,0,.1-.1s.1-.1.1-.2h0Z" transform="translate(-1.8 -2.7)"/><path d="M40.9,37.7v1h-.1c0-.2-.1-.3-.1-.4l-.3-.3h-.9v3.3c0,.3,0,.4.1.5s.2.1.4.1h.1V42H38.3v-.1h.2a.52.52,0,0,0,.4-.2,2,2,0,0,0,.1-.5V38h-.9c-.1,0-.2.1-.3.2a.75.75,0,0,0-.1.5h-.1l.1-1Z" transform="translate(-1.8 -2.7)"/><path d="M44.9,37.8v-.1h1.5v.1h-.2a.52.52,0,0,0-.4.2,2,2,0,0,0-.1.5v1.7a2.79,2.79,0,0,1-.1,1,2.65,2.65,0,0,1-.5.6,1.49,1.49,0,0,1-1,.3,3.09,3.09,0,0,1-1.1-.2,1.79,1.79,0,0,1-.5-.7,2.81,2.81,0,0,1-.1-1.1V38.4c0-.3,0-.4-.1-.5s-.2-.1-.4-.1h-.2v-.1h1.8v.1h-.2a.52.52,0,0,0-.4.2c-.1.1-.1.2-.1.5V41a.76.76,0,0,0,.2.5l.3.3a1.08,1.08,0,0,0,.6.1,2.35,2.35,0,0,0,.8-.2,1.21,1.21,0,0,0,.5-.5,2.51,2.51,0,0,0,.1-1V38.5c0-.3,0-.4-.1-.5s-.2-.1-.4-.1h.1Z" transform="translate(-1.8 -2.7)"/><path d="M51.6,42H50.5L49,40h-.5v1.2c0,.3,0,.4.1.5s.2.1.4.1h.2V42H47.4v-.1h.2a.52.52,0,0,0,.4-.2,2,2,0,0,0,.1-.5V38.4c0-.3,0-.4-.1-.5s-.2-.1-.4-.1h-.2v-.1H49a2.51,2.51,0,0,1,1,.1,1,1,0,0,1,.5.4.73.73,0,0,1,.2.6.91.91,0,0,1-.3.7,1.51,1.51,0,0,1-.8.4l.9,1.2a3.81,3.81,0,0,0,.5.6.85.85,0,0,0,.6.2Zm-3-2.2h.2a1.22,1.22,0,0,0,.9-.3,1,1,0,0,0-.7-1.7,1.09,1.09,0,0,0-.5.1v1.9Z" transform="translate(-1.8 -2.7)"/><path d="M53.7,37.9v1.7h.9a.75.75,0,0,0,.5-.1.76.76,0,0,0,.2-.5h.1v1.5h-.1c0-.2-.1-.3-.1-.4s-.1-.1-.2-.2-.2-.1-.4-.1h-.9v1.7a.1.1,0,0,0,.1.1h.9a.75.75,0,0,0,.5-.1c.1,0,.2-.1.3-.2a1.54,1.54,0,0,0,.4-.6H56L55.8,42H52.5v-.1h.2a.37.37,0,0,0,.3-.1c.1,0,.1-.1.1-.2V38.4c0-.3,0-.4-.1-.5s-.2-.1-.4-.1h-.2v-.1h3.3v.9h-.1a4.33,4.33,0,0,0-.1-.5l-.2-.2H53.7Z" transform="translate(-1.8 -2.7)"/><path d="M59.3,42v-.1h.2a.52.52,0,0,0,.4-.2,2,2,0,0,0,.1-.5V38.4c0-.3,0-.4-.1-.5s-.2-.1-.4-.1h-.2v-.1H61a6.05,6.05,0,0,1,1.5.2,1.78,1.78,0,0,1,.8.7,2.13,2.13,0,0,1,.3,1.2,2.46,2.46,0,0,1-.5,1.5,2.56,2.56,0,0,1-1.9.7Zm1.2-.3a2,2,0,0,0,.7.1,1.66,1.66,0,0,0,1.2-.5,2.21,2.21,0,0,0,0-2.8,1.66,1.66,0,0,0-1.2-.5,1.27,1.27,0,0,0-.6.1v3.6Z" transform="translate(-1.8 -2.7)"/><path d="M65.6,37.9v1.7h.9a.75.75,0,0,0,.5-.1.76.76,0,0,0,.2-.5h.1v1.5h-.1c0-.2-.1-.3-.1-.4s-.1-.1-.2-.2-.2-.1-.4-.1h-.9v1.7a.1.1,0,0,0,.1.1h.9a.75.75,0,0,0,.5-.1c.1,0,.2-.1.3-.2a1.54,1.54,0,0,0,.4-.6H68L67.7,42H64.4v-.1h.2a.37.37,0,0,0,.3-.1c.1,0,.1-.1.1-.2V38.4c0-.3,0-.4-.1-.5s-.2-.1-.4-.1h-.2v-.1h3.3v.9h-.1a4.33,4.33,0,0,0-.1-.5l-.2-.2H65.6Z" transform="translate(-1.8 -2.7)"/><path d="M72.4,39.7h2V38.1a.1.1,0,0,0-.1-.1.37.37,0,0,0-.3-.1h-.2v-.1h1.8v.1h-.2a.37.37,0,0,0-.3.1c-.1,0-.1.1-.1.2v3.6a.1.1,0,0,0,.1.1c.1,0,.2.1.3.1H73.8v-.1H74a.52.52,0,0,0,.4-.2c.1-.1.1-.2.1-.5V39.9h-2v1.7a.1.1,0,0,0,.1.1c.1,0,.2.1.3.1H73V42H71.2v-.1h.2a.52.52,0,0,0,.4-.2c.1-.1.1-.2.1-.5V38a.1.1,0,0,0-.1-.1.37.37,0,0,0-.3-.1h-.2v-.1H73v.1h-.2a.37.37,0,0,0-.3.1c-.1,0-.1.1-.1.2v1.6Z" transform="translate(-1.8 -2.7)"/><path d="M79.3,40.5H77.6l-.3.7a.76.76,0,0,0-.1.4c0,.1,0,.1.1.2s.2.1.4.1V42H76.4v-.1a.44.44,0,0,0,.3-.1,5.92,5.92,0,0,0,.4-.6l1.5-3.5h.1l1.5,3.6a1.63,1.63,0,0,0,.3.6c.1.1.2.1.4.1H79.2v-.1c.2,0,.3,0,.3-.1s.1-.1.1-.2a.76.76,0,0,0-.1-.4Zm-.1-.2-.7-1.7-.7,1.7Z" transform="translate(-1.8 -2.7)"/><path d="M84,37.8v-.1h1.5v.1h-.2a.52.52,0,0,0-.4.2,2,2,0,0,0-.1.5v1.7a2.79,2.79,0,0,1-.1,1,2.65,2.65,0,0,1-.5.6,1.49,1.49,0,0,1-1,.3,3.09,3.09,0,0,1-1.1-.2,1.79,1.79,0,0,1-.5-.7,2.81,2.81,0,0,1-.1-1.1V38.4c0-.3,0-.4-.1-.5s-.2-.1-.4-.1h0v-.1h1.8v.1h-.2a.52.52,0,0,0-.4.2c-.1.1-.1.2-.1.5V41a.76.76,0,0,0,.2.5l.3.3a1.08,1.08,0,0,0,.6.1,2.35,2.35,0,0,0,.8-.2,1.21,1.21,0,0,0,.5-.5,2.51,2.51,0,0,0,.1-1V38.5c0-.3,0-.4-.1-.5s-.2-.1-.4-.1H84Z" transform="translate(-1.8 -2.7)"/><path d="M89.7,37.7v1h-.1c0-.2-.1-.3-.1-.4l-.3-.3h-.9v3.3c0,.3,0,.4.1.5s.2.1.4.1h.1V42H87.1v-.1h.2a.52.52,0,0,0,.4-.2,2,2,0,0,0,.1-.5V38h-.9c-.1,0-.2.1-.3.2a.75.75,0,0,0-.1.5h-.1v-1Z" transform="translate(-1.8 -2.7)"/><path d="M92,37.9v1.7h.9a.75.75,0,0,0,.5-.1.76.76,0,0,0,.2-.5h.1v1.5h-.1c0-.2-.1-.3-.1-.4s-.1-.1-.2-.2-.2-.1-.4-.1H92v1.7a.1.1,0,0,0,.1.1H93a.75.75,0,0,0,.5-.1c.1,0,.2-.1.3-.2a1.54,1.54,0,0,0,.4-.6h.1L94,42H90.7v-.1h.2a.37.37,0,0,0,.3-.1c.1,0,.1-.1.1-.2V38.4c0-.3,0-.4-.1-.5s-.2-.1-.4-.1h-.2v-.1H94v.9h0a4.33,4.33,0,0,0-.1-.5l-.2-.2H92Z" transform="translate(-1.8 -2.7)"/><path d="M98.8,39.7h2V38.1a.1.1,0,0,0-.1-.1.37.37,0,0,0-.3-.1h-.2v-.1H102v.1h-.2a.37.37,0,0,0-.3.1c-.1,0-.1.1-.1.2v3.6a.1.1,0,0,0,.1.1c.1,0,.2.1.3.1h-1.6v-.1h.2a.52.52,0,0,0,.4-.2c.1-.1.1-.2.1-.5V39.9h-2v1.7a.1.1,0,0,0,.1.1c.1,0,.2.1.3.1h.2V42H97.7v-.1h.2a.52.52,0,0,0,.4-.2,2,2,0,0,0,.1-.5V38a.1.1,0,0,0-.1-.1.37.37,0,0,0-.3-.1h-.2v-.1h1.8v.1h-.2a.37.37,0,0,0-.3.1c-.1,0-.1.1-.1.2v1.6Z" transform="translate(-1.8 -2.7)"/><path d="M104.9,37.6a1.82,1.82,0,0,1,1.4.6,2.11,2.11,0,0,1,.6,1.6,2.27,2.27,0,0,1-.6,1.6,2.18,2.18,0,0,1-3,0,2.27,2.27,0,0,1-.6-1.6,2.19,2.19,0,0,1,.7-1.7A3,3,0,0,1,104.9,37.6Zm0,.2a1,1,0,0,0-.9.4,2.54,2.54,0,0,0-.4,1.6,2.54,2.54,0,0,0,.4,1.6,1,1,0,0,0,.9.4,1.39,1.39,0,0,0,1-.5,2.08,2.08,0,0,0,.4-1.5,2.36,2.36,0,0,0-.4-1.6A1.78,1.78,0,0,0,104.9,37.8Z" transform="translate(-1.8 -2.7)"/><path d="M112,42h-1.1l-1.4-2H109v1.2c0,.3,0,.4.1.5s.2.1.4.1h.2V42h-1.8v-.1h.2a.52.52,0,0,0,.4-.2,2,2,0,0,0,.1-.5V38.4c0-.3,0-.4-.1-.5s-.2-.1-.4-.1h-.2v-.1h1.6a2.51,2.51,0,0,1,1,.1,1,1,0,0,1,.5.4.73.73,0,0,1,.2.6.91.91,0,0,1-.3.7,1.51,1.51,0,0,1-.8.4l.9,1.2a3.81,3.81,0,0,0,.5.6.85.85,0,0,0,.6.2V42Zm-3-2.2h.2a1.22,1.22,0,0,0,.9-.3,1,1,0,0,0-.7-1.7,1.09,1.09,0,0,0-.5.1v1.9Z" transform="translate(-1.8 -2.7)"/><path d="M116.5,40.8h.1l-.4,1.2h-3.3v-.1h.2a.52.52,0,0,0,.4-.2,2,2,0,0,0,.1-.5V38.4c0-.3,0-.4-.1-.5s-.2-.1-.4-.1h-.2v-.1h1.9v.1a.75.75,0,0,0-.5.1.22.22,0,0,0-.2.2,2,2,0,0,0-.1.5v2.7c0,.2,0,.3.1.4l.1.1h.8c.3,0,.6,0,.7-.1a.54.54,0,0,0,.4-.3C116.2,41.2,116.4,41,116.5,40.8Z" transform="translate(-1.8 -2.7)"/><path d="M119.4,37.6a1.82,1.82,0,0,1,1.4.6,2.11,2.11,0,0,1,.6,1.6,2.27,2.27,0,0,1-.6,1.6,2.18,2.18,0,0,1-3,0,2.27,2.27,0,0,1-.6-1.6,2.19,2.19,0,0,1,.7-1.7A2.46,2.46,0,0,1,119.4,37.6Zm-.1.2a1,1,0,0,0-.9.4,2.54,2.54,0,0,0-.4,1.6,2.54,2.54,0,0,0,.4,1.6,1,1,0,0,0,.9.4,1.39,1.39,0,0,0,1-.5,2.08,2.08,0,0,0,.4-1.5,2.36,2.36,0,0,0-.4-1.6A1.78,1.78,0,0,0,119.3,37.8Z" transform="translate(-1.8 -2.7)"/><path d="M126.2,37.6l.1,1.3h-.1a5.94,5.94,0,0,0-.4-.8,1.78,1.78,0,0,0-1-.4,1.31,1.31,0,0,0-1.2.6,2.84,2.84,0,0,0-.4,1.3,3.59,3.59,0,0,0,.2,1.1,2.17,2.17,0,0,0,.6.7,1.2,1.2,0,0,0,.8.2.9.9,0,0,0,.5-.1.76.76,0,0,0,.4-.2V39.7c0-.1-.1-.1-.2-.2s-.2-.1-.4-.1v-.1h1.7v.1h-.1c-.2,0-.3.1-.3.2a2,2,0,0,0-.1.5v1.3c-.2.1-.5.2-.7.3a2,2,0,0,1-.8.1,2.21,2.21,0,0,1-2.4-2.2,2.28,2.28,0,0,1,.3-1.1,2,2,0,0,1,.9-.9,2,2,0,0,1,1.1-.3h.4a1.69,1.69,0,0,1,.5.2.35.35,0,0,1,.2.1.1.1,0,0,0,.1-.1.31.31,0,0,1,.1-.2h.2Z" transform="translate(-1.8 -2.7)"/><path d="M128.7,37.9v1.7h.9a.75.75,0,0,0,.5-.1.76.76,0,0,0,.2-.5h.1v1.5h-.1c0-.2-.1-.3-.1-.4s-.1-.1-.2-.2-.2-.1-.4-.1h-.9v1.7a.1.1,0,0,0,.1.1h.9a.75.75,0,0,0,.5-.1c.1,0,.2-.1.3-.2a1.54,1.54,0,0,0,.4-.6h.1l-.4,1.1h-3.3v-.1h.2a.37.37,0,0,0,.3-.1c.1,0,.1-.1.1-.2V38.2c0-.3,0-.4-.1-.5s-.2-.1-.4-.1h-.2v-.1h3.3v.9h-.1a4.33,4.33,0,0,0-.1-.5l-.2-.2h-1.4Z" transform="translate(-1.8 -2.7)"/><path d="M136.2,42h-1.1l-1.4-2h-.5v1.2c0,.3,0,.4.1.5s.2.1.4.1h.2V42H132v-.1h.2a.52.52,0,0,0,.4-.2,2,2,0,0,0,.1-.5V38.4c0-.3,0-.4-.1-.5s-.2-.1-.4-.1H132v-.1h1.6a2.51,2.51,0,0,1,1,.1,1,1,0,0,1,.5.4.73.73,0,0,1,.2.6.91.91,0,0,1-.3.7,1.51,1.51,0,0,1-.8.4l.9,1.2a3.81,3.81,0,0,0,.5.6.85.85,0,0,0,.6.2Zm-3-2.2h.2a1.22,1.22,0,0,0,.9-.3.91.91,0,0,0,.3-.7,1.45,1.45,0,0,0-.2-.7.91.91,0,0,0-.7-.3,1.09,1.09,0,0,0-.5.1v1.9Z" transform="translate(-1.8 -2.7)"/><path d="M138.7,41.8V42h-1.8v-.1h.2a.52.52,0,0,0,.4-.2,2,2,0,0,0,.1-.5V38a.1.1,0,0,0-.1-.1.37.37,0,0,0-.3-.1H137v-.1h1.8v.1h-.2a.52.52,0,0,0-.4.2c-.1.1-.1.2-.1.5v3.2a.1.1,0,0,0,.1.1c.1,0,.2.1.3.1h.2Z" transform="translate(-1.8 -2.7)"/><path d="M140.8,37.9v1.7h.9a.75.75,0,0,0,.5-.1.76.76,0,0,0,.2-.5h.1v1.5h-.1c0-.2-.1-.3-.1-.4s-.1-.1-.2-.2-.2-.1-.4-.1h-.9v1.7a.1.1,0,0,0,.1.1h.9a.75.75,0,0,0,.5-.1c.1,0,.2-.1.3-.2a1.54,1.54,0,0,0,.4-.6h.1l-.4,1.1h-3.3v-.1h.2a.37.37,0,0,0,.3-.1c.1,0,.1-.1.1-.2V38.2c0-.3,0-.4-.1-.5s-.2-.1-.4-.1h-.2v-.1h3.3v.9h-.1a4.33,4.33,0,0,0-.1-.5l-.2-.2h-1.4Z" transform="translate(-1.8 -2.7)"/><path d="M4.6,20c0-1.1-.7-1.8-2.6-1.8v-.7h9.8c4.1,0,6.9,1.3,6.9,3.6,0,2-2,3-4.4,3.2h0c2.7.3,5.4,1.2,5.4,3.7,0,1.8-1.6,4.1-7,4.1H2v-.7c1.9,0,2.6-.6,2.6-1.6ZM9,24h.9c2.8,0,4.1-.9,4.1-2.6s-1.2-2.9-3.2-2.9C9.7,18.5,9,18.9,9,20Zm0,5.6c0,1,.5,1.6,2,1.6,2.7,0,4.1-1,4.1-2.8S14.3,25,11,25H9Z" transform="translate(-1.8 -2.7)"/><path d="M21,32.2v-.7c1.6,0,2.1-.5,2.1-1.3V22.6c0-.8-.5-1.3-2.1-1.3v-.7h7.9v.7c-1.6,0-2.1.5-2.1,1.3V30c0,.8.4,1.2,1.5,1.2a4.42,4.42,0,0,0,2.8-.5,5.54,5.54,0,0,0,2-3H34l-.7,4.5Z" transform="translate(-1.8 -2.7)"/><path d="M52.5,20.5h5.4L65,27.4h0V22.5c0-.9-.4-1.3-2.2-1.3v-.7h5.5v.7c-1.6,0-1.9.4-1.9,1.3v9.6H65.2l-9.2-9h0v7c0,.8.4,1.3,2.4,1.3v.7h-6v-.7c1.6,0,2.1-.5,2.1-1.3V22.5c0-.8-.4-1.3-2.1-1.3v-.7Z" transform="translate(-1.8 -2.7)"/><path d="M84.9,32.2v-.7c1.6,0,2.1-.5,2.1-1.3V22.6c0-.8-.5-1.3-2.1-1.3v-.7h7.9c3.1,0,5.3,1.1,5.3,3.1S95.9,27,93,27H90.5v3.2c0,.9.6,1.3,2.3,1.3v.7ZM90.5,26h.8c2.1,0,3-.8,3-2.3a2.18,2.18,0,0,0-2.4-2.3c-.8,0-1.4.3-1.4,1.2Z" transform="translate(-1.8 -2.7)"/><path d="M114.1,32.2v-.7c1.6,0,2.1-.5,2.1-1.3V22.6c0-.8-.5-1.3-2.1-1.3v-.7H122v.7c-1.6,0-2.1.5-2.1,1.3v7.6c0,.8.5,1.3,2.1,1.3v.7Z" transform="translate(-1.8 -2.7)"/><path d="M123.6,17.5h6.8l9,8.6h.1V20c0-1.1-.6-1.8-2.7-1.8v-.6h6.9v.6c-2,0-2.4.7-2.4,1.8V32.1h-1.5L128.2,20.8h-.1v9c0,1.1.5,1.7,3.1,1.7v.7h-7.5v-.7c2,0,2.6-.6,2.6-1.7V20c0-1.1-.5-1.8-2.6-1.8v-.7Z" transform="translate(-1.8 -2.7)"/><path d="M110.8,30.4l-5.6-10H104l-4.8,9c-.8,1.4-1.1,1.9-2.8,2.1v.7h6.1v-.7h-1c-.8,0-1.1-.4-1.1-.9a2,2,0,0,1,.2-.9l.6-1.2H106l1,1.8c.1.2.2.3.2.5,0,.4-.3.7-1.4.7H105v.7h7.9v-.7C111.7,31.4,111.3,31.2,110.8,30.4Zm-7.3-6.3,1.9,3.4h-3.7Z" transform="translate(-1.8 -2.7)"/><path d="M83.2,28.6h-.3a6.73,6.73,0,0,1-5.4,2.6c-3,0-4.4-1.8-4.4-4.9,0-2.9,1.2-5.2,3.9-5.2,2.5,0,3.8,1.2,4.9,3.6h.9V20.6h-.9l-.8.7a10.89,10.89,0,0,0-4.3-1c-4.5,0-7.7,2.8-7.7,6s2.4,6,8,6a8.25,8.25,0,0,0,6.1-2.2Z" transform="translate(-1.8 -2.7)"/><path d="M49.2,30.4l-5.6-10H42.3l-4.8,9c-.8,1.4-1.1,1.9-2.8,2.1v.7h6.1v-.7h-1c-.8,0-1.1-.4-1.1-.9a2,2,0,0,1,.2-.9l.6-1.2h4.8l1,1.8c.1.2.2.3.2.5,0,.4-.3.7-1.4.7h-.7v.7h7.9v-.7C50.1,31.4,49.6,31.2,49.2,30.4Zm-7.3-6.3,1.9,3.4H40.1Z" transform="translate(-1.8 -2.7)"/><path d="M71.4,2.7H75c2.3,0,3.8.6,3.8,2a1.81,1.81,0,0,1-1.7,1.8h0c.6.1,2.3.4,2.3,2,0,1.1-.9,2.3-3.8,2.3H71.5V2.7Zm2.4,3.5h.5c1.5,0,1.9-.6,1.9-1.4a1.53,1.53,0,0,0-1.7-1.5h-.6V6.2Zm0,3.9h.7c1.5,0,2.2-.6,2.2-1.5s-.5-1.8-2.2-1.8h-.7Z" transform="translate(-1.8 -2.7)"/><polygon points="68.3 0 65.3 0 65.3 0.6 66.4 0.6 66.4 7.3 65.1 7.3 64.8 8 68.3 8 68.3 0"/><polygon points="62.6 9.2 63 9.8 63 12.8 61.6 12.8 61.6 10 60.7 10 60.5 9.2 62.6 9.2"/><polygon points="63.7 9.2 64 10 67.1 10 64.9 12.8 66.5 12.8 68.8 10 68.8 9.2 63.7 9.2"/><path d="M75.8,13.6c.3,0,1,.2,1,.8s-.3,1-1.6,1H71.1l.2-.8h3.5c.3,0,.3-.3.3-.4h0c0-.1-.1-.4-.3-.4H73.3v-.5h1.5c.3,0,.3-.2.3-.3h0a.27.27,0,0,0-.3-.3H71.7l-.2-.8h3.7c1.2,0,1.4.4,1.4.9.1.7-.5.8-.8.8Z" transform="translate(-1.8 -2.7)"/><path d="M78.1,11.9v2h3.4c.2,0,.3.2.3.4s-.1.4-.3.4H77.8l-.2.8h4c.9,0,1.6-.3,1.6-1s-.7-1-1.4-1H79.5v-.7h3l.2-.8H78.1Z" transform="translate(-1.8 -2.7)"/></svg>